<svg id="visual" viewBox="0 0 900 600" width="900" height="600" xmlns="http://www.w3.org/2000/svg" xmlns:xlink="http://www.w3.org/1999/xlink" version="1.1"><rect x="0" y="0" width="900" height="600" fill="#404b3f"></rect><g transform="translate(423.46316849292776 306.6931199298433)"><path d="M145.9 -225C183.6 -202.7 205.1 -153.1 224.4 -104.4C243.7 -55.6 260.9 -7.8 258.4 40C256 87.8 233.8 135.6 200 171.6C166.1 207.6 120.7 231.9 78.4 225.3C36.1 218.8 -3.1 181.4 -39.2 159.1C-75.3 136.8 -108.3 129.6 -140.2 111.2C-172.1 92.8 -202.8 63.2 -205.4 30.9C-207.9 -1.4 -182.2 -36.4 -158.8 -66.3C-135.5 -96.1 -114.5 -120.8 -88.4 -148.4C-62.4 -176 -31.2 -206.5 11.4 -224.3C54.1 -242.1 108.1 -247.3 145.9 -225" fill="#F7CACA"></path></g></svg>